<svg id="Layer_1" data-name="Layer 1" xmlns="http://www.w3.org/2000/svg" viewBox="0 0 737.014 696.718"><defs><style>.cls-1{fill:#fffff3;}</style></defs><title>24</title><path class="cls-1" d="M862.706,434.721c0-168.187-129.864-304.562-368.507-304.562S125.692,266.534,125.692,434.721c0,125.967,72.805,234.107,209.607,280.437h0v89.018a22.7,22.7,0,0,0,45.4,0V767.788a22.7,22.7,0,0,1,45.4,0v36.388a22.7,22.7,0,1,0,45.4,0V767.788a22.7,22.7,0,0,1,45.4,0v36.388a22.7,22.7,0,1,0,45.4,0V767.788a22.7,22.7,0,0,1,45.4,0v36.388a22.7,22.7,0,0,0,45.4,0v-89.02C789.9,668.825,862.706,560.686,862.706,434.721ZM515.6,584.12c8.967-4.11,24.179,9.768,33.893,31.012s10.356,41.793,1.335,45.9c-8.968,4.11-24.126-9.768-33.894-31.011C507.222,608.78,506.635,588.23,515.6,584.12Zm-52.576,11.423c6.886,3.149,6.406,18.895-1.014,35.121-7.472,16.28-19.055,26.9-25.94,23.752s-6.406-18.9,1.014-35.121C444.559,603.015,456.142,592.393,463.027,595.543Zm-242.7-190.072c0-73.071,53.162-132.372,118.708-132.372,65.492,0,118.654,59.3,118.654,132.372,0,73.125-53.162,132.372-118.654,132.372C273.489,537.843,220.327,478.6,220.327,405.471ZM649.363,517.507c-55.458,0-100.4-50.173-100.4-112.036s44.942-111.982,100.4-111.982,100.452,50.12,100.452,111.982S704.82,517.507,649.363,517.507Z" transform="translate(-125.692 -130.159)"/></svg>